<?xml version="1.0" standalone="no"?><!DOCTYPE svg PUBLIC "-//W3C//DTD SVG 1.1//EN" "http://www.w3.org/Graphics/SVG/1.1/DTD/svg11.dtd"><svg t="1744353225884" class="icon" viewBox="0 0 1024 1024" version="1.1" xmlns="http://www.w3.org/2000/svg" p-id="1601" xmlns:xlink="http://www.w3.org/1999/xlink" width="200" height="200"><path d="M853 768.7c3-31.56-16.71-66.34-45-99.15 43 5.12 82.87 2 107.37-18.08C983 596 956 536.48 1024 494.3c-70.77-37.38-48-98.65-119.17-149.29C879 326.64 839 326.3 796.47 334.38c25.94-34.68 43.19-70.74 38-102-14.23-86.23-79.3-92.62-81.82-172.61-67.76 42.59-109.41-7.81-188.88 28.55-28.82 13.19-49.1 47.64-63.38 88.54-17.07-39.82-39.67-72.78-69.34-83.95-81.79-30.79-119.86 22.37-190.4-15.44 3 80-61.46 90.84-69.71 177.85-3 31.56 16.71 66.34 45 99.15-43-5.12-82.87-2-107.37 18.08C41 428 68 487.52 0 529.7c70.77 37.38 47.94 98.65 119.17 149.3C145 697.36 185 697.7 227.53 689.62c-25.94 34.68-43.19 70.75-38 102 14.23 86.23 79.3 92.62 81.82 172.61 67.76-42.59 109.41 7.81 188.88-28.55 28.82-13.19 49.1-47.64 63.38-88.54 17.06 39.82 39.67 72.78 69.34 84 81.79 30.79 119.86-22.37 190.4 15.45-3.03-80.01 61.44-90.88 69.65-177.89z" fill="#8E75B6" p-id="1602"></path><path d="M677.18 201.6c-34.57 25.54-83.66 104.84-125.91 193.65S512 512 512 512s24.84-13.14 74.9-97.79 88.41-169.67 90.28-212.61zM512 512c-34.57 25.54-83.66 104.84-125.91 193.65S346.82 822.4 346.82 822.4s24.84-13.14 74.9-97.79S510.13 554.93 512 512zM160.6 524.15c39.4 17.17 132.62 20 230.66 12.22S512 512 512 512s-23.8-14.94-122.14-16-191.14 8.3-229.26 28.15zM512 512c39.4 17.17 132.63 20 230.66 12.22s120.74-24.37 120.74-24.37-23.8-14.94-122.14-16S550.12 492.15 512 512zM698.22 810.25c-36.25-23.09-90.7-98.81-139-184.49S512 512 512 512s25.69 11.39 81.47 92.38 99.92 163.17 104.75 205.87zM512 512c-36.25-23.09-90.7-98.81-139-184.49s-47.24-113.76-47.24-113.76 25.69 11.39 81.47 92.38S507.17 469.3 512 512z" fill="#6F5DA7" p-id="1603"></path><path d="M530.1 347.73a18.1 18.1 0 1 0-23.76 17.1V467h11.32V364.83a18 18 0 0 0 12.44-17.1zM493.9 676.27a18.1 18.1 0 1 0 23.76-17.1V557h-11.32v102.17a18 18 0 0 0-12.44 17.1zM676.27 530.1a18.1 18.1 0 1 0-17.1-23.75H557v11.3h102.17a18 18 0 0 0 17.1 12.45zM347.73 493.9a18.1 18.1 0 1 0 17.1 23.75H467v-11.3H364.83a18 18 0 0 0-17.1-12.45zM408.64 383a18.1 18.1 0 1 0-4.7 28.89l72.27 72.28 8-8-72.28-72.27a18 18 0 0 0-3.29-20.9zM615.36 641a18.1 18.1 0 1 0 4.7-28.89l-72.27-72.28-8 8 72.28 72.27a18 18 0 0 0 3.29 20.9zM641 408.64a18.1 18.1 0 1 0-28.89-4.7l-72.28 72.27 8 8 72.27-72.28a18 18 0 0 0 20.9-3.29zM383 615.36a18.1 18.1 0 1 0 28.89 4.7l72.28-72.27-8-8-72.27 72.28a18 18 0 0 0-20.9 3.29zM591.62 367.17a18.1 18.1 0 1 0-28.49 6.71L524 468.3l10.45 4.33 39.13-94.42a18 18 0 0 0 18.04-11.04zM432.38 656.83a18.1 18.1 0 1 0 28.49-6.71L500 555.7l-10.45-4.33-39.13 94.42a18 18 0 0 0-18.04 11.04zM656.83 591.62a18.1 18.1 0 1 0-6.71-28.49L555.7 524l-4.34 10.45 94.43 39.13a18 18 0 0 0 11.04 18.04zM367.17 432.38a18.1 18.1 0 1 0 6.71 28.49L468.3 500l4.34-10.45-94.43-39.13a18 18 0 0 0-11.04-18.04zM465.89 353.29a18.1 18.1 0 1 0-15.4 24.89l39.09 94.44L500 468.3l-39.09-94.44a18.06 18.06 0 0 0 4.98-20.57zM558.11 670.71a18.1 18.1 0 1 0 15.4-24.89l-39.09-94.44L524 555.7l39.09 94.44a18.06 18.06 0 0 0-4.98 20.57zM670.71 465.89a18.1 18.1 0 1 0-24.89-15.4l-94.44 39.09L555.7 500l94.44-39.09a18.06 18.06 0 0 0 20.57 4.98zM353.29 558.11a18.1 18.1 0 1 0 24.89 15.4l94.44-39.09L468.3 524l-94.44 39.09a18.06 18.06 0 0 0-20.57-4.98z" fill="#F7CAD6" p-id="1604"></path><path d="M512 512m-83.51 0a83.51 83.51 0 1 0 167.02 0 83.51 83.51 0 1 0-167.02 0Z" fill="#F7CAD6" p-id="1605"></path></svg>